<svg width="208" height="208" xmlns="http://www.w3.org/2000/svg" fill="none">
 <defs>
  <clipPath id="clip0">
   <rect width="208" height="208" fill="white" id="svg_1"/>
  </clipPath>
 </defs>
 <g>
  <title>Layer 1</title>
  <g clip-path="url(#clip0)" id="svg_2">
   <path d="m113.185,30.4842l0,-12.74c8.198,0.6358 16.292,2.1514 24.126,4.5175l5.687,-16.47752c-25.334,-7.70227 -52.5934,-7.70227 -77.9269,0l5.6868,16.47752c7.8337,-2.3661 15.928,-3.8817 24.126,-4.5175l0,12.74c-24.1074,2.224 -46.3838,13.1074 -62.2142,30.3956c-15.8304,17.2881 -24.0017,39.6562 -22.82103,62.4702c1.18063,22.814 11.62283,44.325 29.16313,60.078c17.5404,15.752 40.8347,24.539 65.0572,24.539c24.222,0 47.517,-8.787 65.057,-24.539c17.54,-15.753 27.983,-37.264 29.163,-60.078c1.181,-22.814 -6.99,-45.1821 -22.821,-62.4702c-15.83,-17.2882 -38.107,-28.1716 -62.214,-30.3956l-0.069,0zm-9.202,160.1928c-14.9969,0 -29.6567,-4.194 -42.126,-12.05c-12.4692,-7.857 -22.1878,-19.024 -27.9268,-32.088c-5.739,-13.065 -7.2405,-27.442 -4.3148,-41.311c2.9257,-13.8699 10.1472,-26.61 20.7515,-36.6095c10.6042,-9.9994 24.1148,-16.8091 38.8233,-19.568c14.7088,-2.7588 29.9538,-1.3429 43.8098,4.0688c13.855,5.4117 25.697,14.576 34.028,26.3341c8.332,11.7581 12.779,25.5816 12.779,39.7236c0,18.963 -7.988,37.149 -22.208,50.558c-14.22,13.409 -33.506,20.942 -53.616,20.942z" fill="#cd722e" id="svg_3"/>
   <path d="m193.007,61.425l15.131,-9.75c-8.741,-11.986 -19.747,-22.3528 -32.467,-30.5825l-10.339,14.2675c10.841,7.0153 20.222,15.8505 27.675,26.065z" fill="#cd722e" id="svg_4"/>
   <path d="m42.8752,35.2625l-10.3397,-14.2675c-12.7449,8.2235 -23.77411,18.5907 -32.5355,30.5825l15.1304,9.75c7.4735,-10.2204 16.8785,-19.056 27.7448,-26.065z" fill="#cd722e" id="svg_5"/>
   <path d="m131.59,130l-18.405,-13l0,-47.6775c0.077,-1.1821 -0.104,-2.3664 -0.531,-3.4802c-0.426,-1.1137 -1.09,-2.1333 -1.951,-2.9959c-0.86,-0.8627 -1.899,-1.5501 -3.052,-2.02c-1.153,-0.4698 -2.395,-0.7122 -3.651,-0.7122c-1.256,0 -2.498,0.2424 -3.651,0.7122c-1.153,0.4699 -2.1916,1.1573 -3.0521,2.02c-0.8604,0.8626 -1.5245,1.8822 -1.9514,2.9959c-0.4268,1.1138 -0.6074,2.2981 -0.5306,3.4802l0,51.9995c-0.0103,0.67 0.0826,1.338 0.2757,1.983c0.132,0.64 0.3766,1.256 0.7238,1.82c0.2207,0.577 0.5604,1.107 0.9995,1.56c0.1031,0.111 0.1953,0.231 0.2757,0.357c0.3946,0.42 0.8335,0.802 1.3097,1.138l0.3792,0.26l36.3955,25.74c1.572,1.161 3.518,1.78 5.515,1.755c1.446,0.011 2.875,-0.29 4.178,-0.882c1.302,-0.591 2.443,-1.457 3.335,-2.531c1.454,-1.841 2.074,-4.151 1.725,-6.423c-0.349,-2.272 -1.638,-4.322 -3.586,-5.699l-14.751,-10.4z" fill="#cd722e" id="svg_6"/>
  </g>
 </g>
</svg>