<svg width="352" height="330" xmlns="http://www.w3.org/2000/svg" preserveAspectRatio="xMidYMid meet" version="1.0">
 <metadata>Created by potrace 1.16, written by Peter Selinger 2001-2019</metadata>

 <g>
  <title>Layer 1</title>
  <g id="svg_1" fill="#000000" transform="translate(0 330) scale(0.1 -0.1)">
   <path fill="#ffffff" id="svg_2" d="m1026,3288c-5,-10 -128,-422 -276,-915l-267,-898l-84,-7c-46,-4 -155,-10 -241,-14l-158,-6l0,-29l0,-29l293,0l292,0l219,788c120,433 221,790 225,794c3,4 95,-646 205,-1445c109,-799 201,-1469 205,-1491c5,-30 53,181 235,1025c254,1185 267,1242 272,1237c2,-2 100,-422 219,-933c118,-512 219,-938 223,-948c4,-11 79,255 211,755c112,425 206,779 210,786c4,7 68,-104 160,-278l153,-290l199,0c109,0 199,4 199,8c0,4 -79,21 -175,36l-175,29l-177,353c-98,195 -180,354 -183,354c-3,0 -95,-252 -205,-560c-109,-308 -202,-560 -205,-560c-3,0 -107,329 -230,731c-156,509 -227,726 -232,713c-4,-11 -103,-334 -219,-719c-276,-917 -262,-871 -265,-860c-2,6 -96,539 -209,1185c-238,1362 -210,1210 -219,1188z"/>
  </g>
 </g>
</svg>