<svg width="1440" height="320" xmlns="http://www.w3.org/2000/svg">
 <g>
  <title>Layer 1</title>
  <g id="svg_4">
   <path fill="#3f51b5" d="m0,-44l80,-40c80,-40 240,-120 400,-93.25c160,25.75 320,160.75 480,173.25c160,12.5 320,-92.5 400,-146.75l80,-53.25l0,400.00001l-80,0c-80,0 -240,0 -400,0c-160,0 -320,0 -480,0c-160,0 -320,0 -400,0l-80,0l0,-240.00001z" id="svg_1" stroke="null"/>
   <path fill="#3f51b5" d="m0,262.8l80,14.3c80,14.3 240,42.9 400,33.33687c160,-9.20562 320,-57.46812 480,-61.93687c160,-4.46875 320,33.06875 400,52.46312l80,19.03688l0,-143l-80,0c-80,0 -240,0 -400,0c-160,0 -320,0 -480,0c-160,0 -320,0 -400,0l-80,0l0,85.8z" id="svg_2" stroke="null"/>
  </g>
 </g>

</svg>